<svg version="1.1" xmlns="http://www.w3.org/2000/svg" viewBox="0 0 48 48" width="48" height="48">
  <!-- svg-source:excalidraw -->
  
  <defs>
    <style class="style-fonts">
      @font-face {
        font-family: "Virgil";
        src: url("https://excalidraw.com/Virgil.woff2");
      }
      @font-face {
        font-family: "Cascadia";
        src: url("https://excalidraw.com/Cascadia.woff2");
      }
    </style>
  </defs>
  <rect x="0" y="0" width="48" height="48" fill="#ffffff"></rect><g stroke-linecap="round" transform="translate(10 10) rotate(0 14 14)"><path d="M28 14 C28 14.81, 27.93 15.63, 27.79 16.43 C27.65 17.23, 27.43 18.03, 27.16 18.79 C26.88 19.55, 26.53 20.3, 26.12 21 C25.72 21.7, 25.25 22.38, 24.72 23 C24.2 23.62, 23.62 24.2, 23 24.72 C22.38 25.25, 21.7 25.72, 21 26.12 C20.3 26.53, 19.55 26.88, 18.79 27.16 C18.03 27.43, 17.23 27.65, 16.43 27.79 C15.63 27.93, 14.81 28, 14 28 C13.19 28, 12.37 27.93, 11.57 27.79 C10.77 27.65, 9.97 27.43, 9.21 27.16 C8.45 26.88, 7.7 26.53, 7 26.12 C6.3 25.72, 5.62 25.25, 5 24.72 C4.38 24.2, 3.8 23.62, 3.28 23 C2.75 22.38, 2.28 21.7, 1.88 21 C1.47 20.3, 1.12 19.55, 0.84 18.79 C0.57 18.03, 0.35 17.23, 0.21 16.43 C0.07 15.63, 0 14.81, 0 14 C0 13.19, 0.07 12.37, 0.21 11.57 C0.35 10.77, 0.57 9.97, 0.84 9.21 C1.12 8.45, 1.47 7.7, 1.88 7 C2.28 6.3, 2.75 5.62, 3.28 5 C3.8 4.38, 4.38 3.8, 5 3.28 C5.62 2.75, 6.3 2.28, 7 1.88 C7.7 1.47, 8.45 1.12, 9.21 0.84 C9.97 0.57, 10.77 0.35, 11.57 0.21 C12.37 0.07, 13.19 0, 14 0 C14.81 0, 15.63 0.07, 16.43 0.21 C17.23 0.35, 18.03 0.57, 18.79 0.84 C19.55 1.12, 20.3 1.47, 21 1.88 C21.7 2.28, 22.38 2.75, 23 3.28 C23.62 3.8, 24.2 4.38, 24.72 5 C25.25 5.62, 25.72 6.3, 26.12 7 C26.53 7.7, 26.88 8.45, 27.16 9.21 C27.43 9.97, 27.65 10.77, 27.79 11.57 C27.93 12.37, 27.96 13.59, 28 14 C28.04 14.41, 28.04 13.59, 28 14" stroke="none" stroke-width="0" fill="#000000"></path><path d="M28 14 C28 14.81, 27.93 15.63, 27.79 16.43 C27.65 17.23, 27.43 18.03, 27.16 18.79 C26.88 19.55, 26.53 20.3, 26.12 21 C25.72 21.7, 25.25 22.38, 24.72 23 C24.2 23.62, 23.62 24.2, 23 24.72 C22.38 25.25, 21.7 25.72, 21 26.12 C20.3 26.53, 19.55 26.88, 18.79 27.16 C18.03 27.43, 17.23 27.65, 16.43 27.79 C15.63 27.93, 14.81 28, 14 28 C13.19 28, 12.37 27.93, 11.57 27.79 C10.77 27.65, 9.97 27.43, 9.21 27.16 C8.45 26.88, 7.7 26.53, 7 26.12 C6.3 25.72, 5.62 25.25, 5 24.72 C4.38 24.2, 3.8 23.62, 3.28 23 C2.75 22.38, 2.28 21.7, 1.88 21 C1.47 20.3, 1.12 19.55, 0.84 18.79 C0.57 18.03, 0.35 17.23, 0.21 16.43 C0.07 15.63, 0 14.81, 0 14 C0 13.19, 0.07 12.37, 0.21 11.57 C0.35 10.77, 0.57 9.97, 0.84 9.21 C1.12 8.45, 1.47 7.7, 1.88 7 C2.28 6.3, 2.75 5.62, 3.28 5 C3.8 4.38, 4.38 3.8, 5 3.28 C5.62 2.75, 6.3 2.28, 7 1.88 C7.7 1.47, 8.45 1.12, 9.21 0.84 C9.97 0.57, 10.77 0.35, 11.57 0.21 C12.37 0.07, 13.19 0, 14 0 C14.81 0, 15.63 0.07, 16.43 0.21 C17.23 0.35, 18.03 0.57, 18.79 0.84 C19.55 1.12, 20.3 1.47, 21 1.88 C21.7 2.28, 22.38 2.75, 23 3.28 C23.62 3.8, 24.2 4.38, 24.72 5 C25.25 5.62, 25.72 6.3, 26.12 7 C26.53 7.7, 26.88 8.45, 27.16 9.21 C27.43 9.97, 27.65 10.77, 27.79 11.57 C27.93 12.37, 27.96 13.59, 28 14 C28.04 14.41, 28.04 13.59, 28 14" stroke="#000000" stroke-width="2" fill="none"></path></g></svg>